# xmcd
#
# Track frame offsets:
#	150
#	23496
#	46235
#	72957
#	101415
#	126433
#	142895
#	186225
#	206946
#	232961
#
# Disc length: 3343 seconds
#
# Revision: 12
# Processed by: cddbd v1.5.2PL0 Copyright (c) Steve Scherf et al.
# Submitted via: Jack! The Knife 20 Magnifico
#
DISCID=880d0d0a
DTITLE=Symfonia - In Paradisum
DYEAR=2011
DGENRE=Metal
TTITLE0=Fields Of Avalon
TTITLE1=Come By The Hills
TTITLE2=Santiago
TTITLE3=Alayna
TTITLE4=Forevermore
TTITLE5=Pilgrim Road
TTITLE6=In Paradisum
TTITLE7=Rhapsody In Black
TTITLE8=I Walk In Neon
TTITLE9=Don't Let Me Go
EXTD=Timo Tolkki
EXTT0=Tolkki, Matos
EXTT1=Tolkki, Matos
EXTT2=Tolkki, Matos
EXTT3=Tolkki, Matos
EXTT4=Tolkki, Matos
EXTT5=Tolkki, Matos
EXTT6=Tolkki, Matos
EXTT7=Tolkki, Matos
EXTT8=Tolkki, Matos
EXTT9=Tolkki, Matos
PLAYORDER=
